<svg xmlns="http://www.w3.org/2000/svg" xmlns:xlink="http://www.w3.org/1999/xlink" version="1.1" id="Layer_1" x="0" y="0" viewBox="0 0 123 123.5" xml:space="preserve" enable-background="new 0 0 123 123.5"><style type="text/css">
	.st0{fill:none;}
	.st1{fill:#FFFFFF;}
	.st2{font-family:'Arvo-Bold';}
	.st3{font-size:33.2003;}
	.st4{letter-spacing:2;}
</style><rect x="11.8" y="63" class="st0" width="100" height="60.5"/><text transform="matrix(1.0077 0 0 1 23.0029 88.2211)" class="st1 st2 st3 st4">1989</text><g id="gtq4ND_1_"><path class="st1" d="M0 109c0-28.9 0-57.7 0-86.6 0.1-0.2 0.2-0.4 0.2-0.7 0.9-7 6.5-12 13.6-12.2 3-0.1 5.9 0 8.9 0 0.3 0 0.5 0.1 0.9 0.1 0 2.9 0 5.7 0 8.5 0 2.1 0.4 4 1.6 5.8 2.1 3.2 6.4 5 10 4.1 4.3-1 7.3-4.7 7.4-8.6 0.1-2.8 0.1-5.6 0.1-8.5 0-0.5 0.1-0.9 0.1-1.4 12.6 0 25 0 37.6 0 0 2.7 0 5.3 0 8 0 1 0 2.1 0.2 3.1 0.9 4.1 4.5 7.2 8.4 7.5 5.3 0.4 9.1-3.1 10-6.8 0.3-1.2 0.4-2.4 0.5-3.6 0.1-2.7 0-5.5 0-8.3 3.4 0 6.6-0.1 9.9 0 6 0.1 11.2 4.1 12.9 9.8 0.3 1 0.5 2.1 0.7 3.1 0 28.9 0 57.7 0 86.6 -0.1 0.3-0.2 0.5-0.2 0.8 -0.8 5.7-4.1 9.5-9.4 11.5 -1.1 0.4-2.4 0.6-3.6 0.8 -32.2 0-64.4 0-96.6 0 -0.3-0.1-0.5-0.2-0.8-0.2 -5.7-0.8-9.5-4-11.6-9.3C0.4 111.4 0.3 110.1 0 109zM9.4 42.2c0 0.5 0 0.9 0 1.3 0 21.3 0 42.5 0 63.8 0 3.6 2 5.5 5.6 5.5 31 0 62.1 0 93.1 0 3.7 0 5.6-1.9 5.6-5.6 0-21.2 0-42.4 0-63.6 0-0.4 0-0.8 0-1.3C78.8 42.2 44.2 42.2 9.4 42.2zM33.6 0c0.3 0.1 0.5 0.2 0.8 0.3 1.9 0.6 3.3 2.2 3.3 4.2 0 4.8 0 9.7 0 14.5 0 2.3-1.9 4.2-4.1 4.3 -2.6 0.2-4.6-1.4-5-3.8 -0.1-0.6-0.1-1.3-0.1-1.9 0-3.8 0-7.6 0-11.4 0-3.8 0.7-4.9 4.2-6.2C33 0 33.3 0 33.6 0zM90.3 0c0.8 0.3 1.6 0.6 2.3 1 1.5 1 2 2.5 2 4.2 0 4.3 0 8.7 0 13 0 2.1-0.7 3.8-2.8 4.7 -1.7 0.7-3.4 0.5-4.8-0.7 -1.1-0.9-1.7-2.1-1.7-3.5 0-4.7 0-9.4 0-14.1 0-2.3 1.3-3.9 3.5-4.5 0.2 0 0.4-0.2 0.5-0.2C89.7 0 90 0 90.3 0z"/></g></svg>